# xmcd
#
# Track frame offsets:
#  150
#  22630
#  44109
#  65275
#  83535
#  107545
#  124048
#  144620
#  168003
#  184488
#  206645
#  222178
#  239359
#  254776
#  275301
#  289954
#
# Disc length: 4230 seconds
#
# Revision: 0
# Processed by: cddbd v1.5.1PL0 Copyright (c) Steve Scherf et al.
# Submitted via: AltoMP3_Maker 3.0
#
DISCID=eb108410
DTITLE=Ýbrahim Tatlýses - Aramam
DYEAR=1900
DGENRE=
TTITLE0=Aramam
TTITLE1=Bende Ýnsaným
TTITLE2=Rojin
TTITLE3=Kavur Balýklarý
TTITLE4=Neden Saçlarýn Beyazlamýþ
TTITLE5=Tamam Aþkým
TTITLE6=Kýz Ben Seni Vurmaz mýyým
TTITLE7=Kal Benim Ýçin
TTITLE8=Beyaz Mendil
TTITLE9=Leylim Ley
TTITLE10=Barýþamam
TTITLE11=Dediki niþanlýyým
TTITLE12=Tak Beni Takmam Seni
TTITLE13=Rýndamýn
TTITLE14=Yaz Geldi
TTITLE15=Armam/Dance Remix
EXTD=
EXTT0=
EXTT1=
EXTT2=
EXTT3=
EXTT4=
EXTT5=
EXTT6=
EXTT7=
EXTT8=
EXTT9=
EXTT10=
EXTT11=
EXTT12=
EXTT13=
EXTT14=
EXTT15=
PLAYORDER=
